<svg width="1280" height="800" viewBox="0 0 1280 800" fill="none" xmlns="http://www.w3.org/2000/svg">
  <defs>
    <linearGradient id="backgroundGradient" x1="0" y1="0" x2="1" y2="1">
      <stop offset="0%" stop-color="#020617" />
      <stop offset="60%" stop-color="#0f172a" />
      <stop offset="100%" stop-color="#1f2937" />
    </linearGradient>
    <linearGradient id="spectreGlow" x1="0" y1="0" x2="1" y2="0">
      <stop offset="0%" stop-color="#38bdf8" stop-opacity="0.85" />
      <stop offset="100%" stop-color="#f97316" stop-opacity="0.85" />
    </linearGradient>
    <filter id="glimmer" x="-50" y="-50" width="1380" height="900">
      <feGaussianBlur stdDeviation="45" result="blur" />
      <feMerge>
        <feMergeNode in="blur" />
        <feMergeNode in="SourceGraphic" />
      </feMerge>
    </filter>
  </defs>
  <rect width="1280" height="800" fill="url(#backgroundGradient)" />
  <g filter="url(#glimmer)">
    <circle cx="420" cy="260" r="200" fill="#38bdf8" fill-opacity="0.2" />
    <circle cx="880" cy="540" r="260" fill="#f97316" fill-opacity="0.25" />
  </g>
  <g transform="translate(220, 180)">
    <rect x="0" y="0" width="840" height="400" rx="36" fill="rgba(15, 23, 42, 0.65)" stroke="rgba(148, 163, 184, 0.35)" stroke-width="2" />
    <text x="54" y="110" fill="#f8fafc" font-family="'IBM Plex Sans', 'Segoe UI', sans-serif" font-size="76" font-weight="700">Spectre &amp; Meltdown</text>
    <rect x="54" y="140" width="732" height="6" rx="3" fill="url(#spectreGlow)" />
    <text x="54" y="200" fill="#93c5fd" font-family="'IBM Plex Sans', 'Segoe UI', sans-serif" font-size="34" font-weight="600">
      Speculative execution opened a side-channel into secrets.
    </text>
    <text x="54" y="260" fill="#e2e8f0" font-family="'IBM Plex Sans', 'Segoe UI', sans-serif" font-size="28" font-weight="400" opacity="0.85">
      Worldwide patches, mitigations, and performance hits followed.
    </text>
    <g transform="translate(54, 300)">
      <path d="M80 0C120 0 160 36 160 90C160 150 80 198 80 198C80 198 0 150 0 90C0 36 40 0 80 0Z" fill="#38bdf8" opacity="0.45" />
      <path d="M120 48C132 48 144 60 144 74C144 92 120 114 80 132C40 114 16 92 16 74C16 60 28 48 40 48" stroke="#f8fafc" stroke-width="6" stroke-linecap="round" stroke-linejoin="round" />
    </g>
  </g>
</svg>
